<svg xmlns="http://www.w3.org/2000/svg" xmlns:xlink="http://www.w3.org/1999/xlink" version="1.1" id="svg-241e" x="0px" y="0px" viewBox="0 0 512 512" style="enable-background:new 0 0 512 512; color: #f32261 !important; fill: #f32261 !important;" xml:space="preserve" class="u-svg-content"><g><g><path d="M394.667,405.333c-29.397,0-53.333,23.936-53.333,53.333S365.269,512,394.667,512S448,488.064,448,458.667    S424.064,405.333,394.667,405.333z M394.667,490.667c-17.643,0-32-14.357-32-32s14.357-32,32-32s32,14.357,32,32    S412.309,490.667,394.667,490.667z"></path>
</g>
</g><g><g><path d="M181.333,405.333c-29.397,0-53.333,23.936-53.333,53.333S151.936,512,181.333,512c29.397,0,53.333-23.936,53.333-53.333    S210.731,405.333,181.333,405.333z M181.333,490.667c-17.643,0-32-14.357-32-32s14.357-32,32-32c17.643,0,32,14.357,32,32    S198.976,490.667,181.333,490.667z"></path>
</g>
</g><g><g><path d="M437.333,362.667H191.125c-25.344,0-47.317-18.027-52.288-42.88L85.12,51.243c-1.003-4.992-5.376-8.576-10.453-8.576h-64    C4.779,42.667,0,47.445,0,53.333S4.779,64,10.667,64H65.92l51.989,259.989C124.864,358.763,155.648,384,191.125,384h246.208    c5.888,0,10.667-4.779,10.667-10.667C448,367.445,443.221,362.667,437.333,362.667z"></path>
</g>
</g><g><g><path d="M464.661,240.043c-5.909-0.661-11.179,3.413-11.904,9.259c-2.005,15.979-15.659,28.032-31.765,28.032H128    c-5.888,0-10.667,4.779-10.667,10.667s4.779,10.667,10.667,10.667h292.992c26.837,0,49.6-20.075,52.928-46.72    C474.645,246.101,470.507,240.768,464.661,240.043z"></path>
</g>
</g><g><g><path d="M245.333,106.667H96c-5.888,0-10.667,4.779-10.667,10.667S90.112,128,96,128h149.333c5.888,0,10.667-4.779,10.667-10.667    S251.221,106.667,245.333,106.667z"></path>
</g>
</g><g><g><path d="M394.667,0c-64.704,0-117.333,52.629-117.333,117.333s52.629,117.333,117.333,117.333S512,182.037,512,117.333    S459.371,0,394.667,0z M394.667,213.333c-52.928,0-96-43.072-96-96c0-52.928,43.072-96,96-96s96,43.072,96,96    C490.667,170.261,447.595,213.333,394.667,213.333z"></path>
</g>
</g><g><g><path d="M437.333,106.667H352c-5.888,0-10.667,4.779-10.667,10.667S346.112,128,352,128h85.333    c5.888,0,10.667-4.779,10.667-10.667S443.221,106.667,437.333,106.667z"></path>
</g>
</g><g><g><path d="M394.667,64C388.779,64,384,68.779,384,74.667V160c0,5.888,4.779,10.667,10.667,10.667s10.667-4.779,10.667-10.667V74.667    C405.333,68.779,400.555,64,394.667,64z"></path>
</g>
</g><g></g><g></g><g></g><g></g><g></g><g></g><g></g><g></g><g></g><g></g><g></g><g></g><g></g><g></g><g></g></svg>