<svg xmlns="http://www.w3.org/2000/svg" xmlns:xlink="http://www.w3.org/1999/xlink" version="1.1" xml:space="preserve" class="u-svg-content" viewBox="0 0 512 512" x="0px" y="0px" id="svg-1407" style="enable-background:new 0 0 512 512;"><g><g><path d="M396.082,172.127l-69.009-72.348c-3.156-3.3-7.519-5.17-12.082-5.17H197.009c-4.563,0-8.932,1.87-12.082,5.17    l-69.009,72.348c-2.961,3.105-4.614,7.235-4.614,11.526v300.522c0,15.343,12.483,27.826,27.826,27.826H372.87    c15.343,0,27.826-12.483,27.826-27.826V183.652C400.696,179.361,399.043,175.232,396.082,172.127z M367.304,478.609H144.696    V190.336L204.154,128H307.84l59.464,62.336V478.609z"></path>
</g>
</g><g><g><path d="M256,0c-9.222,0-16.696,7.474-16.696,16.696v172.522c0,9.222,7.474,16.696,16.696,16.696s16.696-7.474,16.696-16.696    V16.696C272.696,7.474,265.222,0,256,0z"></path>
</g>
</g><g><g><path d="M258.783,178.087c-32.223,0-58.435,26.212-58.435,58.435c0,32.223,26.212,58.435,58.435,58.435    c32.223,0,58.435-26.212,58.435-58.435C317.217,204.299,291.005,178.087,258.783,178.087z M258.783,261.565    c-13.807,0-25.043-11.236-25.043-25.044s11.236-25.043,25.043-25.043c13.807,0,25.044,11.236,25.044,25.043    S272.59,261.565,258.783,261.565z"></path>
</g>
</g></svg>