<?xml version="1.0" encoding="utf-8"?>
<!-- Generator: Adobe Illustrator 23.0.3, SVG Export Plug-In . SVG Version: 6.00 Build 0)  -->
<svg version="1.1" id="Layer_1" xmlns="http://www.w3.org/2000/svg" xmlns:xlink="http://www.w3.org/1999/xlink" x="0px" y="0px"
	 viewBox="0 0 566.9 58" style="enable-background:new 0 0 566.9 58;" xml:space="preserve">
<style type="text/css">
	.st0{fill:#FFFFFF;}
</style>
<image style="display:none;overflow:visible;" width="567" height="58" xlink:href="3A12CC64.jpg"  transform="matrix(0.9999 0 0 0.9999 0 0)">
</image>
<path d="M68.9,56.8H6c-2.7,0-5-2.3-5-5V6.1c0-2.8,2.3-5,5-5h62.8c2.8,0,5,2.3,5,5v45.8C73.9,54.6,71.6,56.8,68.9,56.8z"/>
<path d="M167.1,56.8h-62.8c-2.8,0-5-2.3-5-5V6.1c0-2.8,2.3-5,5-5h62.8c2.8,0,5,2.3,5,5v45.8C172.1,54.6,169.8,56.8,167.1,56.8z"/>
<path d="M265.4,56.8h-62.8c-2.8,0-5-2.3-5-5V6.1c0-2.8,2.3-5,5-5h62.8c2.8,0,5,2.3,5,5v45.8C270.4,54.6,268.1,56.8,265.4,56.8z"/>
<path d="M364.5,56.8h-62.8c-2.8,0-5-2.3-5-5V6.1c0-2.8,2.3-5,5-5h62.8c2.8,0,5,2.3,5,5v45.8C369.5,54.6,367.2,56.8,364.5,56.8z"/>
<path d="M463.3,56.8h-62.8c-2.8,0-5-2.3-5-5V6.1c0-2.8,2.3-5,5-5h62.8c2.8,0,5,2.3,5,5v45.8C468.3,54.6,466.1,56.8,463.3,56.8z"/>
<path d="M561.2,56.8h-62.8c-2.8,0-5-2.3-5-5V6.1c0-2.8,2.3-5,5-5h62.8c2.8,0,5,2.3,5,5v45.8C566.2,54.6,564,56.8,561.2,56.8z"/>
<g>
	<path class="st0" d="M13.7,21.5c0.4,0.1,0.8,0.1,1.2,0.2c1.4,0.4,2.3,1.6,2.4,3.1c0.1,2.7-1.7,4.8-4.6,5.1c-1,0.1-2.1,0.1-3.2,0.1
		c-0.6,0-0.8,0.2-0.9,0.7c-0.2,0.9-0.5,1.8-0.7,2.8c-0.1,0.2-0.2,0.6-0.4,0.6c-0.9,0.1-1.9,0.4-2.8-0.2c0-0.1,0-0.2,0-0.3
		c0-0.1,0.1-0.2,0.1-0.3c0.7-3.1,1.4-6.1,2.1-9.2c0.2-0.9,0.6-1.8,0.9-2.7C9.7,21.5,11.7,21.5,13.7,21.5z M10.7,27.7
		c0,0.1,0,0.1,0.1,0.2c0.8-0.3,1.6-0.4,2.3-0.8c1-0.6,1.1-2,0.3-2.7c-0.8-0.7-1.8-0.7-2.8-0.5c-0.2,0-0.4,0.3-0.5,0.6
		c-0.2,0.8-0.4,1.7-0.6,2.6c-0.1,0.5,0.1,0.7,0.6,0.7C10.3,27.7,10.5,27.7,10.7,27.7z"/>
	<path class="st0" d="M42.2,21.5c0.6,0.1,1.1,0.1,1.7,0.1c1.1,0,2.2,0,3.2,0c2.1,0,3.3,1.6,3.1,3.7c-0.3,2.9-2.4,4.3-4.8,4.5
		C44.5,30,43.5,30,42.6,30c-0.6,0-0.9,0.2-1.1,0.8c-0.2,0.9-0.5,1.8-0.7,2.8c0,0.2-0.1,0.4-0.2,0.4c-0.9,0-1.8,0-2.6,0
		c0,0-0.1-0.5,0-0.8c0.5-2.4,1.1-4.8,1.7-7.2c0.3-1.1,0.6-2.1,0.7-3.2c0.1-0.7,0.4-1.1,1.1-1.3C41.7,21.5,41.9,21.5,42.2,21.5z
		 M43.8,27.7c0,0,0,0.1,0,0.1c0.7-0.2,1.3-0.3,2-0.5c0.6-0.2,1.1-0.7,1.2-1.4c0.1-0.8,0-1.5-0.8-1.8c-0.9-0.4-1.8-0.6-2.8-0.2
		c-0.2,0.1-0.3,0.3-0.4,0.5c-0.2,0.8-0.4,1.7-0.6,2.5c-0.1,0.5,0.1,0.8,0.7,0.8C43.4,27.7,43.6,27.7,43.8,27.7z"/>
	<path class="st0" d="M29.5,38.5c-0.7-0.1-1.3-0.1-2.2-0.2c0.2-0.4,0.3-0.8,0.6-1c1.5-1.7,1.7-3.5,1.1-5.6c-0.6-2.1-0.8-4.2-1.2-6.4
		c-0.1-0.5,0.1-0.9,0.7-0.9c0.1,0,0.1,0,0.2,0c2.2,0,2-0.3,2.3,1.9c0.2,1.1,0.4,2.2,0.6,3.3c0.1,0.3,0.2,0.6,0.3,1.1
		c0.2-0.4,0.4-0.6,0.5-0.7c1-1.6,2.1-3.2,3-4.9c0.3-0.5,0.7-0.7,1.2-0.6c0.7,0,1.4,0,2.3,0c-0.4,0.7-0.7,1.2-1,1.7
		c-2.3,3.7-4.5,7.4-6.8,11.1c-0.3,0.4-0.6,0.8-0.9,1.2C30,38.5,29.7,38.5,29.5,38.5z"/>
	<path class="st0" d="M69.2,23.1c-0.1-0.3-0.3-0.6-0.4-0.9c-0.1,0.3-0.3,0.5-0.4,0.9c-0.2-0.4-0.3-0.7-0.4-1
		c-0.1,0.3-0.2,0.6-0.2,0.8c0,0-0.1,0-0.1,0c0-0.4,0.1-0.9,0.1-1.3c0.1,0,0.1,0,0.2,0c0.1,0.3,0.3,0.7,0.5,1.1
		c0.2-0.4,0.3-0.7,0.5-1.1c0,0,0.1,0,0.1,0c0.1,0.4,0.2,0.8,0.2,1.2C69.2,22.9,69.2,23,69.2,23.1z"/>
	<path class="st0" d="M18.3,27c0.1-0.6,0.1-1.2,0.2-1.7c0.1-0.2,0.4-0.5,0.6-0.5c1.7-0.4,3.4-0.5,5-0.2c1.8,0.3,2.6,1.6,2.3,3.4
		c-0.4,1.7-0.7,3.5-1.1,5.2c-0.1,0.6-0.4,0.9-1.1,0.9c-0.6,0-1.1,0-1.7,0c0-0.3,0-0.6,0-1c-0.6,0.3-1,0.5-1.5,0.8
		c-1,0.6-2.1,0.6-3.1,0.4c-1.5-0.3-2.1-1.9-1.4-3.6c0.5-1.4,1.7-1.9,3-2.1c1-0.1,2.1-0.2,3.2-0.2c0.7,0,1-0.3,1-0.9c0-0.6-0.4-1-1-1
		c-1.2,0.1-2.5,0.2-3.7,0.4C18.8,26.9,18.6,26.9,18.3,27z M21.8,29.6c-0.7,0.2-1.5,0.4-2.1,0.6c-0.5,0.2-0.7,0.7-0.6,1.2
		c0.1,0.3,0.3,0.8,0.6,0.9c1.1,0.6,2.9-0.1,3.2-1.3C23.2,30.1,23.5,29.5,21.8,29.6z"/>
	<path class="st0" d="M55.6,34.1c0-0.4-0.1-0.7-0.1-1c-0.4,0.2-0.8,0.4-1.2,0.6c-1,0.6-2,0.7-3.1,0.6c-1.4-0.2-2.2-1.5-1.8-3.1
		c0.3-1.4,1.6-2.4,3.2-2.5c1-0.1,2.1-0.1,3.1-0.1c0.6,0,1-0.2,1-0.9c0-0.7-0.3-1.1-1-1.1c-1.2,0-2.5,0.1-3.7,0.3
		c-0.6,0.1-0.7,0-0.7-0.5c0.1-1.2,0.2-1.5,1.4-1.6c1.4-0.1,2.9-0.3,4.3,0c2,0.4,2.7,1.5,2.3,3.3c-0.3,1.8-0.8,3.5-1.1,5.2
		c-0.1,0.6-0.4,0.9-1,0.9C56.7,34.1,56.2,34.1,55.6,34.1z M53.7,32.6c1.6,0,2.3-0.7,2.5-2.2c0.1-0.4-0.1-0.8-0.6-0.7
		c-0.8,0.1-1.6,0.1-2.4,0.3c-0.9,0.2-1.3,0.9-1.1,1.6C52.3,32.3,52.7,32.6,53.7,32.6z"/>
	<path class="st0" d="M61.4,34c-1.7,0-1.4,0.1-1.1-1.4c0.7-3.4,1.5-6.8,2.3-10.2c0.1-0.6,0.4-0.9,1-0.8c0.5,0,0.9,0,1.4,0
		c0.5,0,0.7,0.2,0.6,0.7c-0.9,3.7-1.8,7.4-2.6,11c-0.1,0.4-0.3,0.7-0.8,0.6C61.9,34,61.6,34,61.4,34z"/>
</g>
<g>
	<path class="st0" d="M139,37.4c-0.6-0.1-1.2-0.1-1.8-0.3c-0.8-0.2-1.5-0.4-2.3-0.6c-0.2,0-0.2-0.1-0.2-0.3c0.3-1.2,0.5-2.5,0.8-3.7
		c0,0,0-0.1,0.1-0.1c0.1,0.1,0.3,0.1,0.4,0.2c1.6,0.8,3.3,1.1,5.1,0.9c0.5-0.1,1.1-0.3,1.6-0.5c0.9-0.6,1-1.6,0.2-2.4
		c-0.4-0.4-0.9-0.7-1.4-1c-0.7-0.4-1.4-0.7-2.1-1.1c-0.6-0.4-1.2-0.9-1.7-1.4c-1.3-1.5-1.4-3.7-0.3-5.6c0.9-1.5,2.3-2.3,3.9-2.8
		c2.7-0.8,5.3-0.7,7.9,0.3c0,0,0.1,0,0.1,0.1c-0.3,1.3-0.5,2.6-0.8,3.9c-0.2-0.1-0.3-0.1-0.4-0.2c-1.4-0.6-2.9-0.8-4.4-0.6
		c-0.5,0.1-1,0.2-1.4,0.6c-0.7,0.6-0.7,1.3-0.1,1.9c0.4,0.3,0.8,0.6,1.3,0.9c0.7,0.4,1.5,0.8,2.2,1.2c0.6,0.4,1.2,0.8,1.7,1.3
		c1.4,1.5,1.4,3.3,0.8,5.2c-0.7,1.8-2,2.9-3.8,3.5c-0.9,0.4-1.8,0.6-2.8,0.7c-0.1,0-0.2,0-0.3,0.1C140.5,37.4,139.7,37.4,139,37.4z"
		/>
	<path class="st0" d="M165.6,37.1c-0.4,0-0.9,0-1.3,0c-1,0-1.9,0-2.9,0c-0.2,0-0.3-0.1-0.3-0.3c-0.1-0.7-0.3-1.5-0.5-2.2
		c0-0.2-0.1-0.3-0.4-0.3c-1.9,0-3.8,0-5.7,0c-0.2,0-0.3,0.1-0.4,0.3c-0.3,0.8-0.5,1.5-0.8,2.3c-0.1,0.2-0.1,0.3-0.3,0.3
		c-1.5,0-3.1,0-4.6,0c-0.1,0-0.1,0-0.2,0c0-0.1,0.1-0.2,0.1-0.3c2.4-5.6,4.7-11.2,7.1-16.8c0.4-1,1.1-1.5,2.3-1.5c1.2,0,2.4,0,3.6,0
		c0.3,0,0.4,0.1,0.4,0.3c1.2,6,2.5,12,3.8,18C165.6,36.9,165.6,37,165.6,37.1z M158.3,23.6C158.3,23.6,158.3,23.6,158.3,23.6
		c-0.9,2.3-1.8,4.6-2.6,6.9c1.4,0,2.7,0,4.1,0C159.3,28.2,158.8,25.9,158.3,23.6z"/>
	<path class="st0" d="M105.7,18.9c0.1-0.5,0.1-0.5,0.5-0.5c2.5,0,5.1,0,7.6,0c1.4,0,2.2,0.7,2.5,2c0.6,3.4,1.3,6.8,1.9,10.2
		c0,0.1,0.1,0.3,0.1,0.4c0-0.1,0.1-0.2,0.1-0.3c1.6-4,3.2-8,4.7-12c0.1-0.2,0.2-0.3,0.5-0.3c1.5,0,2.9,0,4.4,0c0.1,0,0.2,0,0.4,0
		c0,0.1-0.1,0.2-0.1,0.3c-2.5,6-5.1,12.1-7.6,18.1c-0.1,0.2-0.2,0.3-0.4,0.3c-1.5,0-3,0-4.5,0c-0.3,0-0.4-0.1-0.4-0.3
		c-1.2-4.8-2.5-9.5-3.7-14.3c-0.3-1.2-0.9-2-2-2.3c-1.3-0.4-2.5-0.8-3.8-1.2C105.8,19,105.8,19,105.7,18.9z"/>
	<path class="st0" d="M126.5,37.1c1.3-6.3,2.7-12.5,4-18.7c1.6,0,3.2,0,4.8,0c-0.1,0.5-0.2,1-0.3,1.5c-1.2,5.6-2.4,11.2-3.6,16.8
		c-0.1,0.2-0.1,0.4-0.4,0.3c-1.4,0-2.8,0-4.1,0C126.8,37.1,126.7,37.1,126.5,37.1z"/>
</g>
<g>
	<path class="st0" d="M222.7,46c-0.3,0-0.7,0-1,0c-0.1,0-0.1,0-0.2,0c-0.6-0.1-1.2-0.1-1.8-0.2c-1.1-0.2-2.2-0.4-3.2-0.8
		c-3-1.1-5.4-2.8-7.4-5.3c-2.4-2.9-3.6-6.3-3.8-10c-0.1-1.6,0.1-3.2,0.5-4.7c1-4.1,3.3-7.4,6.7-9.9c2.8-2,6-3,9.4-3.1
		c1.6,0,3.2,0.1,4.7,0.6c2.1,0.6,4.1,1.5,5.9,2.9c0.2,0.1,0.4,0.3,0.5,0.4c-2.3,2.2-3.9,4.9-4.8,7.9c0,0,0,0,0.1,0
		c0.4,0,0.8,0,1.3,0c0.1,0,0.1-0.1,0.1-0.1c0.7-2,1.7-3.9,3.1-5.5c0.4-0.5,0.9-1,1.3-1.4c0,0,0.1,0,0.1,0.1c1.5,1.5,2.8,3.1,3.6,5.1
		c0.3,0.6,0.5,1.2,0.7,1.8c0,0,0.1,0.1,0.1,0.1c0.4,0,0.9,0,1.4,0c-0.9-3.1-2.6-5.7-4.9-7.9c0.2-0.1,0.3-0.2,0.5-0.4
		c3-2.2,6.3-3.4,10-3.5c1.6,0,3.3,0.2,4.8,0.6c3.5,1,6.3,2.8,8.6,5.6c2.2,2.7,3.5,5.7,3.8,9.2c0.1,1.2,0.1,2.4,0,3.5
		c-0.1,1.1-0.3,2.1-0.7,3.2c-1.7,5-4.9,8.6-9.8,10.7c-1.7,0.7-3.5,1.1-5.3,1.2c-0.2,0-0.4,0-0.7,0.1c-0.3,0-0.7,0-1,0
		c-0.1,0-0.1,0-0.2,0c-1.1,0-2.2-0.2-3.3-0.5c-2.1-0.5-4-1.4-5.8-2.7c-0.3-0.2-0.6-0.4-0.9-0.7c2.3-2.2,3.9-4.9,4.9-7.9
		c-0.4,0-0.9,0-1.3,0c0,0-0.1,0-0.1,0c0,0-0.1,0.1-0.1,0.1c-0.7,2.1-1.8,4-3.2,5.6c-0.4,0.4-0.8,0.9-1.2,1.3c0,0-0.1-0.1-0.1-0.1
		c-2-1.9-3.4-4.2-4.3-6.8c0-0.1-0.1-0.1-0.2-0.1c-0.3,0-0.6,0-0.9,0c-0.1,0-0.3,0-0.4,0c0.9,3.1,2.5,5.7,4.8,7.9
		c0,0-0.1,0.1-0.1,0.1c-1.3,1-2.6,1.8-4.1,2.4c-1.7,0.7-3.5,1.2-5.3,1.3C223.2,46,223,46,222.7,46z M208.4,33c0.3-1.8,0.7-3.6,1-5.4
		c0,0,0,0,0,0c0.2,1.8,0.3,3.6,0.5,5.4c0.5,0,1,0,1.5,0c0.1,0,0.2,0,0.2-0.1c0.7-1.6,1.4-3.2,2.2-4.8c0-0.1,0.1-0.2,0.1-0.3
		c0,0,0,0,0,0c-0.3,1.8-0.7,3.5-1,5.3c0.6,0,1.2,0,1.8,0c0.5-2.5,0.9-5.1,1.4-7.6c-0.1,0-0.1,0-0.1,0c-0.8,0-1.7,0-2.5,0
		c-0.1,0-0.2,0-0.2,0.1c-0.6,1.4-1.3,2.9-1.9,4.3c0,0,0,0.1-0.1,0.1c0,0,0,0,0,0c-0.1-1.5-0.2-3-0.3-4.5c-0.9,0-1.8,0-2.7,0
		c-0.5,2.5-1,5.1-1.5,7.6C207.2,33,207.8,33,208.4,33z M259,27.4C259,27.4,258.9,27.4,259,27.4c-0.1-0.1-0.2-0.2-0.3-0.3
		c-0.3-0.3-0.6-0.5-1-0.5c-0.2,0-0.5,0-0.7,0c-0.7,0-1.3,0.4-1.8,1c-0.4,0.6-0.6,1.2-0.8,1.8c-0.2,0.9-0.1,1.7,0.3,2.5
		c0.2,0.3,0.3,0.5,0.6,0.7c0.5,0.4,1,0.4,1.6,0.2c0.3-0.1,0.6-0.2,0.8-0.4c0,0.1,0.1,0.2,0.2,0.4c0,0.1,0.1,0.1,0.2,0.1
		c0.5,0,1.1,0,1.6,0c0,0,0.1,0,0.1,0c0.5-2.7,1-5.3,1.5-8c-0.6,0-1.2,0-1.8,0C259.3,25.8,259.1,26.6,259,27.4z M247.7,32.7
		c0,0.1,0.1,0.1,0.1,0.2c0,0.1,0.1,0.1,0.2,0.1c0.3,0,0.5,0,0.8,0c0.2,0,0.4,0,0.7,0c0-0.1,0-0.1,0-0.2c0.2-0.9,0.4-1.9,0.6-2.8
		c0.1-0.5,0.2-1,0.2-1.6c0-0.5-0.2-0.9-0.6-1.2c-0.4-0.4-1-0.5-1.5-0.5c-0.9,0-1.7,0-2.5,0.2c-0.1,0-0.1,0-0.1,0.1
		c0,0.3-0.1,0.5-0.2,0.8c0,0.2-0.1,0.3-0.1,0.5c0.3,0,0.6-0.1,0.9-0.1c0.6-0.1,1.2-0.1,1.8-0.1c0.4,0,0.5,0.2,0.5,0.6
		c0,0.1,0,0.2,0,0.3c-0.1,0-0.2,0-0.3,0c-0.6,0-1.2,0-1.8,0.1c-0.9,0.2-1.6,0.8-1.9,1.7c-0.3,1,0.2,1.9,1.2,2.2
		C246.5,33.1,247.1,33,247.7,32.7z M220.5,33c0-0.1,0-0.1,0-0.1c0.2-1,0.4-1.9,0.6-2.9c0.1-0.5,0.2-1.1,0.2-1.6
		c-0.1-0.5-0.2-0.9-0.6-1.2c-0.4-0.4-1-0.5-1.5-0.5c-0.9,0-1.7,0-2.5,0.2c0,0-0.1,0.1-0.1,0.1c-0.1,0.3-0.1,0.5-0.2,0.8
		c0,0.2-0.1,0.3-0.1,0.5c0.3,0,0.6-0.1,0.9-0.1c0.6-0.1,1.2-0.1,1.8-0.1c0.3,0,0.5,0.2,0.5,0.4c0,0.1,0,0.3,0,0.4
		c-0.1,0-0.2,0-0.3,0c-0.6,0-1.2,0-1.8,0.1c-0.9,0.2-1.6,0.8-1.9,1.8c-0.3,1,0.2,1.8,1.1,2.1c0.5,0.1,0.9,0.1,1.4,0
		c0.2,0,0.4-0.2,0.7-0.2c0,0.1,0.1,0.2,0.2,0.2c0,0,0.1,0.1,0.1,0.1C219.5,33,220,33,220.5,33z M243.7,31.1
		c-0.4,0.1-0.8,0.2-1.2,0.2c-0.7,0-1.2-0.4-1.5-1.1c-0.2-0.5-0.1-1,0-1.5c0.3-1.3,1.8-2.3,3.3-1.5c0,0,0.1,0,0.1,0
		c0.1-0.1,0.3-0.3,0.4-0.4c0.2-0.2,0.4-0.4,0.7-0.7c-0.2-0.2-0.4-0.4-0.6-0.5c-0.9-0.5-1.8-0.6-2.8-0.3c-1.4,0.5-2.3,1.4-2.8,2.8
		c-0.3,0.8-0.4,1.7-0.2,2.5c0.3,1.2,1,2,2.2,2.3c0.7,0.2,1.4,0.1,2.1-0.1c0.2-0.1,0.5-0.2,0.7-0.2C244,32.1,243.8,31.6,243.7,31.1z
		 M234.9,30.2c0.1-0.6,0.2-1.2,0.1-1.8c-0.1-0.8-0.5-1.3-1.3-1.6c-0.5-0.2-1-0.2-1.5-0.2c-0.7,0.1-1.3,0.3-1.8,0.8
		c-0.9,0.9-1.2,2.1-1,3.3c0.1,0.7,0.4,1.2,0.9,1.6c0.5,0.4,1.1,0.5,1.7,0.6c0.4,0,0.9,0,1.3-0.1c0.3,0,0.6-0.1,0.9-0.2
		c0.1,0,0.1-0.1,0.1-0.2c0.1-0.3,0.1-0.7,0.2-1c0-0.1,0-0.1,0-0.2c-0.4,0-0.8,0.1-1.2,0.1c-0.5,0-1,0-1.5,0c-0.7-0.1-1-0.6-0.8-1.3
		C232.4,30.2,233.6,30.2,234.9,30.2z M221.1,32.8c0.5,0.1,0.9,0.1,1.3,0.2c0.6,0,1.2,0.1,1.7-0.1c0.5-0.1,1-0.3,1.3-0.7
		c0.3-0.4,0.4-0.8,0.4-1.2c0-0.6-0.2-1-0.7-1.3c-0.4-0.2-0.8-0.4-1.2-0.6c-0.1-0.1-0.2-0.1-0.3-0.2c-0.2-0.3-0.1-0.7,0.3-0.7
		c0.6-0.1,1.1,0,1.7,0.1c0.1-0.4,0.3-0.8,0.4-1.3c-0.1,0-0.1-0.1-0.2-0.1c-0.6-0.2-1.1-0.2-1.7-0.2c-0.5,0-1,0.1-1.5,0.3
		c-0.4,0.2-0.7,0.5-0.9,1c-0.1,0.3-0.1,0.5-0.1,0.8c0,0.6,0.2,1,0.8,1.3c0.4,0.2,0.8,0.4,1.3,0.7c0.2,0.1,0.3,0.4,0.2,0.6
		c-0.1,0.2-0.2,0.3-0.5,0.3c-0.1,0-0.2,0-0.2,0c-0.5,0-1,0-1.4,0c-0.2,0-0.4-0.1-0.6-0.1C221.3,31.9,221.2,32.3,221.1,32.8z
		 M227.4,25.1c0,0.2-0.1,0.3-0.1,0.4c-0.3,1.3-0.5,2.7-0.8,4c-0.1,0.6-0.3,1.2-0.3,1.9c-0.1,0.6,0.2,1.2,0.8,1.4
		c0.6,0.2,1.2,0.1,1.8-0.1c0,0,0.1-0.1,0.1-0.1c0-0.2,0-0.3,0-0.5c0-0.2,0-0.4,0-0.6c-0.1,0-0.2,0-0.3,0c-0.5,0-0.7-0.2-0.6-0.7
		c0,0,0,0,0-0.1c0.1-0.6,0.2-1.2,0.3-1.8c0.1-0.3,0.1-0.6,0.2-0.8c0.2,0,0.4,0,0.5,0c0.1,0,0.3,0,0.3,0c0.1-0.1,0.1-0.2,0.1-0.3
		c0.1-0.3,0.2-0.7,0.2-1c-0.3,0-0.6,0-0.9,0c0.1-0.6,0.2-1.1,0.3-1.7C228.6,25.1,228,25.1,227.4,25.1z M253,27.3
		c0-0.2-0.1-0.4-0.1-0.5c0,0-0.1-0.1-0.1-0.1c-0.5,0-0.9,0-1.4,0c-0.4,2.1-0.8,4.2-1.2,6.3c0.6,0,1.2,0,1.7,0c0,0,0-0.1,0-0.1
		c0.1-0.8,0.3-1.6,0.4-2.3c0.1-0.5,0.2-1,0.5-1.5c0.3-0.5,0.7-0.7,1.2-0.7c0.1,0,0.1,0,0.1-0.1c0.1-0.3,0.1-0.5,0.2-0.8
		c0.1-0.2,0.1-0.5,0.2-0.8C254.1,26.7,253.5,26.8,253,27.3z M236.1,26.8c-0.4,2.1-0.8,4.2-1.2,6.2c0.6,0,1.1,0,1.7,0
		c0.2-0.8,0.3-1.6,0.4-2.4c0.1-0.5,0.2-1,0.5-1.5c0.3-0.4,0.7-0.7,1.2-0.7c0.1,0,0.1,0,0.2-0.1c0.1-0.5,0.3-0.9,0.4-1.4
		c0,0,0-0.1,0-0.1c-0.6,0-1.2,0.1-1.6,0.6c0-0.2-0.1-0.3-0.1-0.5c0,0-0.1-0.1-0.1-0.1C237,26.8,236.5,26.8,236.1,26.8z"/>
	<path class="st0" d="M258.4,29.3c0,0.6-0.2,1.2-0.7,1.6c-0.3,0.3-0.6,0.4-1,0.3c-0.4-0.1-0.6-0.5-0.7-0.9c-0.1-0.8,0.4-1.7,1-2.1
		c0.3-0.2,0.6-0.2,1,0c0.2,0.1,0.3,0.4,0.3,0.6C258.4,29,258.4,29.2,258.4,29.3z"/>
	<path class="st0" d="M248.2,30.2c0,0.2-0.1,0.5-0.1,0.7c-0.1,0.4-0.5,0.7-0.9,0.7c-0.2,0-0.4,0-0.5,0c-0.3-0.1-0.5-0.4-0.4-0.7
		c0.1-0.3,0.4-0.6,0.7-0.7C247.3,30.1,247.9,30.1,248.2,30.2z"/>
	<path class="st0" d="M219.2,30.2c0,0.2-0.1,0.3-0.1,0.5c-0.1,0.5-0.4,0.8-0.8,0.9c-0.2,0.1-0.4,0.1-0.6,0c-0.3-0.1-0.5-0.4-0.4-0.7
		c0.1-0.4,0.4-0.6,0.8-0.7C218.5,30,218.8,30.1,219.2,30.2z"/>
	<path class="st0" d="M233.4,29c-0.7,0-1.4,0-2.1,0c0-0.5,0.5-1,1.1-1.1c0.1,0,0.3,0,0.4,0c0.4,0.1,0.6,0.3,0.6,0.7
		C233.4,28.8,233.4,28.9,233.4,29z"/>
</g>
<g>
	<path class="st0" d="M360.2,28.3c0.4,0.1,0.8,0.2,1.1,0.4c0.8,0.4,1.2,1,1.4,1.8c0.2,1,0.2,2,0,2.9c-0.3,1.3-1.1,2.2-2.4,2.5
		c-0.7,0.2-1.4,0.3-2.1,0.3c-4.9,0-9.9,0-14.8,0c-0.1,0-0.1,0-0.2,0c0-5.2,0-10.3,0-15.5c0.1,0,0.2,0,0.4,0c4.6,0,9.2,0,13.8,0
		c1,0,2,0.1,2.9,0.6c1.2,0.6,1.8,1.6,1.9,2.8c0.1,0.6,0.1,1.2,0,1.8c-0.2,1.1-0.9,1.8-1.8,2.3C360.3,28.2,360.2,28.3,360.2,28.3z
		 M347.9,32.7C348,32.7,348,32.7,347.9,32.7c3,0,5.9,0,8.9,0c0.4,0,0.8-0.2,1-0.6c0.2-0.4,0.2-0.9,0.1-1.4c-0.2-0.5-0.6-0.8-1.3-0.8
		c-2.8,0-5.6,0-8.4,0c-0.1,0-0.2,0-0.2,0C347.9,30.9,347.9,31.7,347.9,32.7z M347.9,26.7c0.1,0,0.2,0,0.3,0c1.4,0,2.7,0,4.1,0
		c1.3,0,2.6,0,3.9,0c0.4,0,0.8-0.1,1.1-0.6c0.2-0.4,0.2-0.9,0-1.4c-0.3-0.5-0.7-0.6-1.3-0.6c-2.6,0-5.2,0-7.8,0c-0.1,0-0.2,0-0.3,0
		C347.9,25,347.9,25.9,347.9,26.7z"/>
	<path class="st0" d="M340.9,26.3c-1.6,0-3.2,0-4.7,0c0-0.2,0-0.4-0.1-0.6c-0.1-0.6-0.5-1-1.1-1.1c-0.4-0.1-0.9-0.2-1.3-0.2
		c-1.5,0-3,0-4.5,0c-0.5,0-0.9,0.1-1.4,0.1c-1,0.2-1.5,0.7-1.6,1.7c-0.2,1.4-0.2,2.8,0,4.2c0.1,1.2,0.8,1.8,2,1.9
		c0.6,0.1,1.1,0.1,1.7,0.1c1.3,0,2.6,0,3.9,0c0.4,0,0.9-0.1,1.3-0.2c0.8-0.2,1.2-0.7,1.3-1.6c0-0.2,0-0.3,0-0.5c0.1,0,0.2,0,0.3,0
		c1.4,0,2.9,0,4.3,0c0.2,0,0.2,0.1,0.3,0.3c0,0.9,0,1.7-0.1,2.6c-0.3,1.7-1.4,2.7-3,3.1c-0.9,0.2-1.9,0.3-2.8,0.3c-2.5,0-5,0-7.5,0
		c-1.1,0-2.2-0.1-3.2-0.4c-1.8-0.6-2.8-1.8-3.1-3.7c-0.1-0.5-0.1-1.1-0.1-1.6c0-1.5,0-2.9,0-4.4c0-0.8,0.1-1.6,0.3-2.3
		c0.4-1.6,1.5-2.6,3.1-3.1c1-0.3,2-0.4,3-0.4c2.4,0,4.8,0,7.1,0c1.1,0,2.3,0.1,3.4,0.3c1.6,0.4,2.4,1.4,2.7,3
		c0.1,0.7,0.1,1.5,0.1,2.2C341,26.1,340.9,26.2,340.9,26.3z"/>
	<path class="st0" d="M314.2,20.7c1.6,0,3.1,0,4.7,0c0,0.1,0,0.2,0,0.3c0,3.7,0,7.4,0,11c0,1.2-0.4,2.3-1.3,3.2
		c-0.7,0.6-1.5,0.9-2.4,1c-0.9,0.1-1.7,0.2-2.6,0.2c-1.4,0-2.8,0-4.2,0c-0.9,0-1.7-0.1-2.6-0.4c-1.4-0.4-2.1-1.3-2.4-2.7
		c-0.1-0.6-0.1-1.1-0.1-1.7c0-0.7,0-1.4,0-2.1c1.5,0,2.9,0,4.4,0c0,0.4,0,0.7,0,1.1c0,0.2,0,0.5,0.1,0.7c0.2,0.7,0.6,1,1.3,1.1
		c0.3,0,0.6,0.1,0.9,0.1c0.9,0,1.7,0,2.6,0c0.2,0,0.3,0,0.5-0.1c0.6-0.1,0.9-0.5,1-1.1c0-0.4,0.1-0.7,0.1-1.1c0-3.1,0-6.1,0-9.2
		C314.2,20.9,314.2,20.8,314.2,20.7z"/>
</g>
<g>
	<path class="st0" d="M428.4,27.9c-0.1-2.4,2-5.1,5.1-5.1c2.8,0,5,2.3,5,5.1c0,2.8-2.3,5.2-5.1,5.1C430.5,33,428.3,30.4,428.4,27.9z
		"/>
	<path class="st0" d="M401.7,32.7c0-3.3,0-6.4,0-9.7c2.4,0,4.8-0.4,6.7,1.6c1.3,1.5,1.6,3.2,1,5c-0.7,1.8-2,2.9-3.9,3.1
		C404.2,32.8,403,32.7,401.7,32.7z M403.6,31c1.5,0.1,2.8-0.1,3.6-1.4c0.7-1.2,0.6-2.4-0.2-3.5c-0.8-1.2-2.1-1.4-3.5-1.3
		C403.6,26.8,403.6,28.8,403.6,31z"/>
	<path class="st0" d="M455.1,22.9c1.3,0.1,2.5,0.1,3.7,0.2c1.4,0.2,2.3,1.1,2.4,2.2c0.2,1.6-0.3,2.5-1.7,3.2
		c-0.1,0.1-0.2,0.1-0.4,0.2c1,1.3,1.9,2.6,3,4c-0.8,0-1.5,0-2.1,0c-0.2,0-0.4-0.3-0.6-0.5c-0.8-1.1-1.5-2.2-2.4-3.2
		c0,1.2,0,2.4,0,3.7c-0.7,0-1.2,0-1.8,0C455.1,29.5,455.1,26.2,455.1,22.9z M457,24.7c0,0.9,0,1.8,0,2.7c0.8,0,1.7,0.2,2.1-0.7
		c0.2-0.4,0.2-1.1,0-1.5C458.6,24.5,457.8,24.6,457,24.7z"/>
	<path class="st0" d="M448.4,23c1.8,0,3.5,0,5.3,0c0,0.5,0,1,0,1.6c-1.1,0-2.2,0-3.3,0c0,0.7,0,1.3,0,2.1c1,0,2.1,0,3.2,0
		c0,0.6,0,1.1,0,1.7c-1,0-2.1,0-3.1,0c0,0.9,0,1.7,0,2.6c1.1,0,2.2,0,3.3,0c0,0.6,0,1.1,0,1.7c-1.8,0-3.5,0-5.3,0
		C448.4,29.4,448.4,26.2,448.4,23z"/>
	<path class="st0" d="M447.6,23c-0.9,2.1-1.8,4.2-2.6,6.3c-0.5,1.1-0.9,2.2-1.4,3.3c-0.1,0.2-0.4,0.4-0.7,0.4
		c-0.2,0-0.6-0.2-0.7-0.4c-1.3-3.2-2.6-6.3-4-9.6c0.7,0,1.3-0.1,1.8,0c0.2,0,0.5,0.4,0.6,0.6c0.8,1.9,1.5,3.7,2.3,5.8
		c0.6-1.4,1.1-2.5,1.5-3.7c0.2-0.4,0.3-0.8,0.5-1.2C445.5,22.8,445.5,22.8,447.6,23z"/>
	<path class="st0" d="M419.7,23.7c-0.5,0.6-0.8,1-1,1.3c-0.8-0.2-1.5-0.4-2.2-0.4c-0.3,0-0.8,0.5-0.9,0.8c-0.1,0.2,0.4,0.7,0.7,0.9
		c0.6,0.4,1.3,0.6,1.9,0.9c1.1,0.5,1.6,1.4,1.5,2.6c-0.1,1.3-0.6,2.3-1.8,2.8c-1.8,0.8-3.8,0.1-4.9-1.6c0.4-0.3,0.8-0.7,1.3-1.1
		c0.5,0.8,1.2,1.3,2.2,1.2c0.6-0.1,1.1-0.3,1.3-1c0.2-0.7-0.1-1.2-0.7-1.4c-0.6-0.2-1.2-0.4-1.7-0.7c-1.5-0.7-2-1.7-1.7-3
		c0.4-1.5,1.7-2.5,3.2-2.3C417.7,22.9,418.6,23.4,419.7,23.7z"/>
	<path class="st0" d="M427.9,30.3c0,0,0.1,0.1,0.1,0.1c0.1,2.1-0.6,2.8-2.7,2.6c-2.1-0.2-3.7-1.2-4.5-3.2c-0.8-2-0.5-3.8,1-5.4
		c1.5-1.6,3.4-2,5.5-1.4c0.5,0.1,0.8,0.4,0.7,0.9c-0.1,0.5,0,0.9,0,1.5c-2.3-1.2-3.8-1-4.9,0.4c-0.9,1.2-0.8,3.1,0.2,4.3
		C424.2,31.3,426.1,31.4,427.9,30.3z"/>
	<path class="st0" d="M410.5,23c0.7,0,1.3,0,1.9,0c0,3.2,0,6.4,0,9.6c-0.6,0-1.2,0-1.9,0C410.5,29.4,410.5,26.2,410.5,23z"/>
</g>
<g>
	<path d="M497.2,23c0.1,0,0.1-0.1,0.2-0.1c0.7-1.5,1.3-3,2-4.4c0.1-0.2,0.2-0.3,0.4-0.3c1.4,0,2.8,0,4.2,0c0.2,0,0.3,0.1,0.3,0.2
		c0.2,0.3,0.3,0.6,0.5,1c0,0,0,0,0.1,0c0-0.4,0-0.7,0-1.1c0.1,0,0.2,0,0.2,0c1.7,0,3.4,0,5,0c0.2,0,0.2,0.1,0.3,0.2
		c0.4,0.8,0.7,1.6,1.1,2.4c0,0,0,0.1,0.1,0.2c0.2-0.4,0.4-0.8,0.5-1.2c0.2-0.4,0.4-0.9,0.6-1.3c0.1-0.2,0.2-0.2,0.3-0.2
		c1.2,0,2.4,0,3.6,0c4.5,0,9,0,13.5,0c0.6,0,1.1,0,1.7,0.3c0.2,0.1,0.3,0.2,0.5,0.3c0-0.2,0-0.4,0-0.6c1.6,0,3.2,0,4.8,0
		c0,0.2,0,0.4,0,0.6c0.3-0.1,0.6-0.2,0.8-0.3c0.8-0.2,1.5-0.3,2.3-0.3c2.2,0,4.4,0,6.7,0c0.2,0,0.3,0,0.3,0.2
		c0.1,0.3,0.3,0.5,0.4,0.8c0,0.1,0.1,0.1,0.1,0.2c0,0,0,0,0.1,0c0-0.3,0-0.6,0-0.8c0-0.2,0.1-0.3,0.3-0.3c1.5,0,3.1,0,4.6,0
		c0.2,0,0.2,0,0.3,0.2c0.2,0.3,0.4,0.7,0.6,1c0,0,0,0,0.1,0c0-0.4,0-0.8,0-1.2c1.7,0,3.3,0,5,0c0,3.5,0,7,0,10.5c-0.1,0-0.2,0-0.2,0
		c-1.5,0-3.1,0-4.6,0c-0.2,0-0.2,0-0.3-0.2c-0.2-0.4-0.5-0.8-0.7-1.2c0-0.1-0.1-0.1-0.2-0.2c0,0.5,0,1,0,1.5c-0.1,0-0.2,0-0.3,0
		c-1.9,0-3.9,0-5.8,0c-0.2,0-0.3-0.1-0.3-0.2c-0.2-0.4-0.4-0.9-0.5-1.3c-0.1-0.1-0.1-0.2-0.3-0.2c-0.4,0-0.8,0-1.2,0
		c-0.1,0-0.2,0-0.3,0.2c-0.2,0.5-0.4,0.9-0.6,1.4c-0.1,0.1-0.1,0.2-0.3,0.2c-1.1,0-2.2,0-3.3,0c-0.9,0-1.7-0.2-2.5-0.5
		c-0.1,0-0.1-0.1-0.2-0.1c0,0,0,0-0.1,0c0,0.2,0,0.4,0,0.6c-2.6,0-5.2,0-7.8,0c0-0.1,0-0.2,0-0.2c0-0.7,0-1.4,0-2.1
		c0-0.5,0-0.5-0.6-0.4c0,0.9,0,1.8,0,2.8c-5,0-10.1,0-15.1,0c0-0.4,0-0.8,0-1.2c0,0,0,0-0.1,0c-0.1,0.1-0.1,0.2-0.2,0.3
		c-0.1,0.3-0.2,0.5-0.3,0.8c0,0.1-0.1,0.2-0.2,0.2c-0.9,0-1.9,0-2.8,0c-0.1,0-0.2,0-0.2-0.2c-0.1-0.3-0.2-0.5-0.3-0.8
		c0-0.1-0.1-0.2-0.1-0.2c0,0,0,0-0.1,0c0,0.4,0,0.7,0,1.2c-0.1,0-0.2,0-0.3,0c-1.9,0-3.7,0-5.6,0c-0.2,0-0.2,0-0.3-0.2
		c-0.2-0.5-0.3-0.9-0.5-1.4c0-0.1-0.1-0.2-0.2-0.2c-0.4,0-0.8,0-1.2,0c-0.1,0-0.2,0-0.2,0.2c-0.2,0.5-0.4,0.9-0.6,1.4
		c-0.1,0.1-0.1,0.2-0.3,0.2c-0.9,0-1.8,0-2.7,0c-0.1,0-0.2,0-0.3,0C497.2,26.8,497.2,24.9,497.2,23z M549.2,26.6
		C549.2,26.6,549.2,26.6,549.2,26.6c-0.2-0.3-0.3-0.6-0.4-0.9c-0.8-2-1.7-3.9-2.5-5.9c-0.1-0.1-0.1-0.2-0.3-0.2c-0.8,0-1.6,0-2.4,0
		c-0.1,0-0.2,0-0.2,0.2c-0.2,0.4-0.4,0.8-0.5,1.3c-0.6,1.4-1.3,2.9-1.9,4.3c0,0.1-0.1,0.2-0.2,0.2c-0.3,0-0.6,0-0.9,0
		c-0.6,0-1.1-0.3-1.3-0.9c-0.2-0.6-0.2-1.3-0.1-1.9c0.1-0.6,0.3-1.2,1-1.4c0.2-0.1,0.5-0.1,0.8-0.1c0.5,0,1.1,0,1.6,0
		c0.1,0,0.2,0,0.2,0c0-0.6,0-1.1,0-1.6c-0.9,0-1.8,0-2.7,0.1c-1.2,0.1-2.1,0.8-2.5,1.9c-0.3,0.9-0.3,1.9-0.2,2.8
		c0.2,1.6,1.1,2.5,2.7,2.7c0.9,0.1,1.9,0.1,2.8,0.1c0.1,0,0.2-0.1,0.2-0.2c0.2-0.4,0.4-0.9,0.6-1.4c0-0.1,0.1-0.2,0.2-0.2
		c1.1,0,2.3,0,3.4,0c0.1,0,0.2,0,0.2,0.2c0.2,0.4,0.4,0.9,0.6,1.3c0.1,0.1,0.1,0.2,0.3,0.2c1.1,0,2.2,0,3.3,0c0.1,0,0.1,0,0.2,0
		c0-1.9,0-3.7,0-5.6c0.1,0.1,0.1,0.2,0.2,0.3c1,1.7,2.1,3.4,3.1,5.1c0.1,0.2,0.2,0.2,0.4,0.2c0.7,0,1.4,0,2.1,0c0.1,0,0.2,0,0.2,0
		c0-2.5,0-5.1,0-7.6c-0.6,0-1.2,0-1.8,0c0,1.7,0,3.4,0,5.1c-0.1-0.1-0.1-0.1-0.2-0.2c-1-1.6-1.9-3.2-2.9-4.7
		c-0.1-0.1-0.1-0.2-0.3-0.2c-0.8,0-1.6,0-2.4,0c-0.1,0-0.1,0-0.2,0C549.2,22,549.2,24.3,549.2,26.6z M516.8,19.6c-0.1,0-0.1,0-0.1,0
		c-0.9,0-1.8,0-2.7,0c-0.1,0-0.2,0.1-0.2,0.2c-0.5,1.2-1.1,2.5-1.6,3.7c-0.2,0.4-0.3,0.8-0.5,1.2c0-0.1-0.1-0.1-0.1-0.2
		c-0.7-1.6-1.5-3.1-2.2-4.7c-0.1-0.2-0.2-0.2-0.3-0.2c-0.8,0-1.6,0-2.5,0c-0.1,0-0.1,0-0.2,0c0,2.3,0,4.6,0,6.9
		c-0.1-0.1-0.1-0.1-0.1-0.2c-0.9-2.2-1.9-4.4-2.8-6.5c-0.1-0.2-0.2-0.2-0.3-0.2c-0.8,0-1.5,0-2.3,0c-0.2,0-0.2,0-0.3,0.2
		c-0.9,2.2-1.9,4.4-2.8,6.6c-0.1,0.2-0.2,0.5-0.3,0.8c0.7,0,1.3,0,1.9,0c0.1,0,0.1-0.1,0.2-0.2c0.2-0.4,0.4-0.9,0.5-1.3
		c0.1-0.2,0.1-0.2,0.3-0.2c1.1,0,2.2,0,3.4,0c0.2,0,0.2,0.1,0.3,0.2c0.2,0.4,0.4,0.9,0.5,1.3c0.1,0.1,0.1,0.2,0.3,0.2
		c1.1,0,2.2,0,3.3,0c0.1,0,0.1,0,0.2,0c0-1.9,0-3.9,0-5.8c0.2,0.3,0.3,0.6,0.4,0.9c0.7,1.6,1.4,3.2,2.1,4.8c0.1,0.1,0.1,0.2,0.3,0.2
		c0.4,0,0.8,0,1.2,0c0.2,0,0.2-0.1,0.3-0.2c0.7-1.5,1.4-3.1,2-4.6c0.1-0.3,0.3-0.7,0.4-1c0,0,0,0,0.1,0c0,1.9,0,3.8,0,5.7
		c0.6,0,1.2,0,1.8,0C516.8,24.7,516.8,22.2,516.8,19.6z M531.6,23.7c0.3-0.3,0.6-0.5,0.8-0.8c0.7-0.9,0.6-2.7-1-3.2
		c-0.4-0.1-0.8-0.1-1.2-0.1c-1.5,0-3,0-4.5,0c-0.1,0-0.2,0-0.2,0c0,2.5,0,5,0,7.5c0.6,0,1.2,0,1.8,0c0-0.9,0-1.8,0-2.7
		c0.3,0,0.7,0,1,0c0.6,0,1.1,0,1.7,0.1c0.5,0,0.7,0.3,0.8,0.7c0,0.3,0.1,0.6,0.1,0.9c0,0.4,0,0.7,0,1.1c0.6,0,1.2,0,1.8,0
		c0-0.7,0-1.4,0-2c0-0.6-0.3-1-0.8-1.3C531.7,23.8,531.6,23.7,531.6,23.7z M524.2,21.2c0-0.5,0-1,0-1.6c-2,0-4,0-6,0
		c0,2.5,0,5,0,7.5c2,0,4,0,6,0c0-0.5,0-1,0-1.6c-1.4,0-2.8,0-4.2,0c0-0.5,0-1,0-1.5c1.4,0,2.8,0,4.1,0c0-0.5,0-1.1,0-1.6
		c-1.4,0-2.8,0-4.1,0c0-0.5,0-0.9,0-1.3C521.4,21.2,522.8,21.2,524.2,21.2z M533.8,19.6c0,2.5,0,5,0,7.6c0.6,0,1.2,0,1.8,0
		c0-2.5,0-5,0-7.6C535,19.6,534.4,19.6,533.8,19.6z"/>
	<path d="M562.2,40.5C562.2,40.5,562.1,40.5,562.2,40.5c-0.3,0.7-0.8,0.9-1.4,1c-0.6,0.1-1.2,0.2-1.7,0.2c-1.5,0-2.9,0-4.4,0
		c-0.1,0-0.1,0-0.2,0c0-0.2,0-0.4,0-0.6c-0.3,0.1-0.5,0.3-0.7,0.3c-0.5,0.1-1,0.3-1.5,0.3c-5,0-9.9,0-14.9,0c0,0-0.1,0-0.1,0
		c0-0.1,0-0.2,0-0.2c0-0.7,0-1.4,0-2.1c0-0.4,0-0.5-0.5-0.4c0,0-0.1,0-0.2,0c0,0.9,0,1.8,0,2.7c-1.6,0-3.2,0-4.8,0
		c0-0.9,0-1.9,0-2.9c-1,0.5-2.1,0.4-3.1,0.4c0,0.8,0,1.6,0,2.5c-0.1,0-0.2,0-0.2,0c-1.8,0-3.7,0-5.5,0c-0.1,0-0.2,0-0.3-0.2
		c-0.4-0.5-0.8-0.9-1.2-1.4c-0.1-0.1-0.2-0.1-0.3,0c-0.4,0.4-0.9,0.9-1.3,1.3c-0.1,0.1-0.2,0.2-0.3,0.2c-3,0-6.1,0-9.1,0
		c-0.1,0-0.1,0-0.2,0c0-3.5,0-7,0-10.5c0.1,0,0.2,0,0.2,0c3.1,0,6.1,0,9.2,0c0.1,0,0.3,0.1,0.3,0.1c0.4,0.4,0.7,0.8,1.1,1.2
		c0.2,0.2,0.2,0.2,0.4,0c0.4-0.4,0.8-0.9,1.2-1.3c0.1-0.1,0.2-0.1,0.3-0.1c2.2,0,4.4,0,6.6,0c0.6,0,1.1,0.2,1.7,0.3
		c0.2,0,0.4,0.2,0.6,0.3c0-0.2,0-0.4,0-0.6c0.1,0,0.2,0,0.3,0c1.9,0,3.7,0,5.6,0c0.8,0,1.6,0.1,2.3,0.6c0,0,0.1,0,0.1,0.1
		c0-0.2,0-0.4,0-0.6c2.9,0,5.8,0,8.8,0c0,0.2,0,0.4,0,0.6c0.2-0.1,0.4-0.2,0.6-0.3c0.5-0.2,1-0.3,1.5-0.3c1.6,0,3.2,0,4.8,0
		c0,0,0.1,0,0.1,0c0,0.2,0,0.4,0,0.6c0.1-0.1,0.2-0.1,0.3-0.1c0.6-0.4,1.3-0.5,2-0.5c1.3,0,2.6,0,3.9,0
		C562.2,34.3,562.2,37.4,562.2,40.5z M511.7,32.6c0,2.5,0,5,0,7.6c0.1,0,0.1,0,0.2,0c2.3,0,4.6,0,6.9,0c0.1,0,0.2-0.1,0.3-0.1
		c0.5-0.5,0.9-1,1.4-1.5c0.3-0.3,0.5-0.6,0.8-0.9c0,0,0.1,0.1,0.1,0.1c0.7,0.7,1.3,1.5,1.9,2.2c0.1,0.1,0.2,0.2,0.4,0.2
		c1,0,2.1,0,3.1,0c0.1,0,0.1,0,0.2,0c0-0.8,0-1.7,0-2.5c0.8,0,1.6,0,2.4,0c0.4,0,0.9-0.1,1.3-0.2c0.5-0.1,0.9-0.3,1.2-0.7
		c0.6-0.8,0.6-1.6,0.3-2.5c-0.2-0.5-0.5-0.9-1-1.2c-0.5-0.3-1.1-0.4-1.7-0.4c-1.9,0-3.8,0-5.7,0c-0.1,0-0.3,0.1-0.3,0.2
		c-0.6,0.6-1.1,1.2-1.7,1.8c-0.2,0.2-0.3,0.3-0.5,0.5c-0.1-0.1-0.2-0.2-0.3-0.4c-0.6-0.6-1.2-1.3-1.7-1.9c-0.1-0.1-0.2-0.2-0.4-0.2
		c-2.3,0-4.5,0-6.8,0C511.9,32.6,511.8,32.6,511.7,32.6z M535,37.4c0.9,0,1.8,0,2.7,0.1c0.4,0,0.7,0.3,0.8,0.7
		c0,0.2,0.1,0.4,0.1,0.6c0,0.4,0,0.9,0,1.3c0.6,0,1.2,0,1.8,0c0-0.8-0.1-1.6-0.1-2.4c0-0.3-0.2-0.6-0.5-0.8
		c-0.2-0.1-0.4-0.2-0.5-0.3c1.1-0.5,1.3-1.6,1.2-2.4c-0.1-0.6-0.4-1-0.9-1.3c-0.6-0.3-1.3-0.4-1.9-0.4c-1.4,0-2.8,0-4.2,0
		c-0.1,0-0.2,0-0.2,0c0,2.5,0,5.1,0,7.6c0.6,0,1.2,0,1.8,0C535,39.3,535,38.4,535,37.4z M541.5,40.2c2,0,4,0,6,0c0-0.5,0-1,0-1.6
		c-1.4,0-2.8,0-4.2,0c0-0.5,0-1,0-1.5c1.4,0,2.8,0,4.1,0c0-0.5,0-1,0-1.5c-1.4,0-2.8,0-4.1,0c0-0.5,0-0.9,0-1.4c1.4,0,2.8,0,4.2,0
		c0-0.5,0-1,0-1.6c-2,0-4,0-6,0C541.5,35.2,541.5,37.7,541.5,40.2z M548.6,40.2c0.1,0,0.1,0,0.2,0c1.1,0,2.2,0,3.3,0
		c0.3,0,0.7,0,1-0.1c0.5-0.1,1-0.3,1.3-0.7c0.5-0.6,0.6-1.3,0.5-2c-0.1-1-0.6-1.5-1.6-1.7c-0.6-0.1-1.3-0.1-1.9-0.1
		c-0.2,0-0.5,0-0.7-0.1c-0.3-0.1-0.4-0.3-0.4-0.6c0-0.3,0.2-0.5,0.5-0.6c0.1,0,0.3,0,0.4,0c1.1,0,2.1,0,3.2,0c0.1,0,0.2,0,0.2,0
		c0-0.6,0-1.1,0-1.6c-1.3,0-2.7-0.1-4,0c-1.5,0.1-2.3,1-2.2,2.4c0,1,0.5,1.7,1.5,1.9c0.5,0.1,1,0.1,1.6,0.2c0.3,0,0.6,0,1,0.1
		c0.3,0,0.6,0.3,0.6,0.6c0,0.3-0.2,0.6-0.5,0.6c-0.1,0-0.3,0-0.4,0c-1.1,0-2.1,0-3.2,0c-0.1,0-0.2,0-0.2,0
		C548.6,39.1,548.6,39.7,548.6,40.2z M561.7,32.6c-1.3,0-2.6,0-3.9,0c-0.1,0-0.2,0-0.3,0c-0.8,0.1-1.4,0.5-1.8,1.2
		c-0.3,0.6-0.3,1.2-0.2,1.8c0.1,0.5,0.4,1,1,1.2c0.4,0.2,0.8,0.3,1.2,0.3c0.6,0.1,1.1,0.1,1.7,0.1c0.4,0,0.7,0.3,0.7,0.7
		c0,0.4-0.2,0.6-0.6,0.6c-0.1,0-0.2,0-0.3,0c-1.1,0-2.1,0-3.2,0c-0.1,0-0.2,0-0.3,0c0,0.6,0,1.1,0,1.6c0,0,0.1,0,0.1,0
		c1.2,0,2.5,0,3.7,0c0.7,0,1.3-0.2,1.8-0.6c0.6-0.5,0.7-1.2,0.7-2c-0.1-1.1-0.6-1.7-1.6-1.9c-0.6-0.1-1.3-0.1-2-0.1
		c-0.2,0-0.5,0-0.7-0.1c-0.3-0.1-0.5-0.3-0.4-0.6c0-0.4,0.3-0.6,0.8-0.6c1.1,0,2.2,0,3.3,0c0.1,0,0.2,0,0.3,0
		C561.7,33.7,561.7,33.2,561.7,32.6z"/>
	<path class="st0" d="M549.2,26.6c0-2.3,0-4.6,0-6.9c0.1,0,0.1,0,0.2,0c0.8,0,1.6,0,2.4,0c0.2,0,0.2,0.1,0.3,0.2
		c1,1.6,1.9,3.2,2.9,4.7c0,0.1,0.1,0.1,0.2,0.2c0-1.7,0-3.4,0-5.1c0.6,0,1.2,0,1.8,0c0,2.5,0,5,0,7.6c-0.1,0-0.2,0-0.2,0
		c-0.7,0-1.4,0-2.1,0c-0.2,0-0.3-0.1-0.4-0.2c-1-1.7-2-3.4-3.1-5.1c0-0.1-0.1-0.1-0.2-0.3c0,1.9,0,3.7,0,5.6c-0.1,0-0.1,0-0.2,0
		c-1.1,0-2.2,0-3.3,0c-0.2,0-0.2,0-0.3-0.2c-0.2-0.4-0.4-0.9-0.6-1.3c0-0.1-0.1-0.2-0.2-0.2c-1.1,0-2.3,0-3.4,0
		c-0.1,0-0.2,0-0.2,0.2c-0.2,0.5-0.4,0.9-0.6,1.4c0,0.1-0.1,0.2-0.2,0.2c-0.9,0-1.9,0-2.8-0.1c-1.6-0.2-2.5-1.1-2.7-2.7
		c-0.1-0.9-0.1-1.9,0.2-2.8c0.4-1.2,1.3-1.8,2.5-1.9c0.9-0.1,1.8-0.1,2.7-0.1c0,0.6,0,1.1,0,1.6c-0.1,0-0.2,0-0.2,0
		c-0.5,0-1.1,0-1.6,0c-0.3,0-0.5,0-0.8,0.1c-0.7,0.2-0.9,0.7-1,1.4c-0.1,0.6-0.1,1.3,0.1,1.9c0.2,0.6,0.7,0.9,1.3,0.9
		c0.3,0,0.6,0,0.9,0c0.1,0,0.2-0.1,0.2-0.2c0.6-1.4,1.3-2.9,1.9-4.3c0.2-0.4,0.4-0.8,0.5-1.3c0-0.1,0.1-0.2,0.2-0.2
		c0.8,0,1.6,0,2.4,0c0.2,0,0.2,0.1,0.3,0.2c0.8,2,1.7,3.9,2.5,5.9C548.9,26,549,26.3,549.2,26.6C549.2,26.6,549.2,26.6,549.2,26.6z
		 M546,23.9c-0.4-1-0.8-1.9-1.2-2.9c-0.4,1-0.8,2-1.2,2.9C544.4,23.9,545.2,23.9,546,23.9z"/>
	<path class="st0" d="M516.8,19.6c0,2.5,0,5,0,7.5c-0.6,0-1.2,0-1.8,0c0-1.9,0-3.8,0-5.7c0,0,0,0-0.1,0c-0.2,0.3-0.3,0.7-0.4,1
		c-0.7,1.5-1.4,3.1-2,4.6c-0.1,0.1-0.1,0.2-0.3,0.2c-0.4,0-0.8,0-1.2,0c-0.2,0-0.2,0-0.3-0.2c-0.7-1.6-1.4-3.2-2.1-4.8
		c-0.1-0.3-0.3-0.6-0.4-0.9c0,1.9,0,3.8,0,5.8c-0.1,0-0.2,0-0.2,0c-1.1,0-2.2,0-3.3,0c-0.2,0-0.2-0.1-0.3-0.2
		c-0.2-0.4-0.4-0.9-0.5-1.3c-0.1-0.1-0.1-0.2-0.3-0.2c-1.1,0-2.2,0-3.4,0c-0.2,0-0.2,0-0.3,0.2c-0.2,0.4-0.4,0.9-0.5,1.3
		c0,0.1-0.1,0.2-0.2,0.2c-0.6,0-1.2,0-1.9,0c0.1-0.3,0.2-0.5,0.3-0.8c0.9-2.2,1.9-4.4,2.8-6.6c0.1-0.1,0.1-0.2,0.3-0.2
		c0.8,0,1.5,0,2.3,0c0.2,0,0.3,0.1,0.3,0.2c0.9,2.2,1.9,4.4,2.8,6.5c0,0.1,0.1,0.1,0.1,0.2c0-2.3,0-4.6,0-6.9c0.1,0,0.2,0,0.2,0
		c0.8,0,1.6,0,2.5,0c0.2,0,0.3,0.1,0.3,0.2c0.7,1.6,1.5,3.1,2.2,4.7c0,0,0,0.1,0.1,0.2c0.2-0.4,0.4-0.8,0.5-1.2
		c0.5-1.2,1.1-2.5,1.6-3.7c0-0.1,0.1-0.2,0.2-0.2c0.9,0,1.8,0,2.7,0C516.7,19.6,516.7,19.6,516.8,19.6z M500.6,23.9
		c0.8,0,1.6,0,2.4,0c-0.4-1-0.8-1.9-1.2-2.9C501.4,22,501,22.9,500.6,23.9z"/>
	<path class="st0" d="M531.6,23.7c0.1,0,0.2,0.1,0.3,0.2c0.5,0.3,0.8,0.7,0.8,1.3c0,0.7,0,1.4,0,2c-0.6,0-1.2,0-1.8,0
		c0-0.4,0-0.7,0-1.1c0-0.3,0-0.6-0.1-0.9c-0.1-0.4-0.3-0.7-0.8-0.7c-0.6,0-1.1,0-1.7-0.1c-0.3,0-0.6,0-1,0c0,0.9,0,1.8,0,2.7
		c-0.6,0-1.2,0-1.8,0c0-2.5,0-5,0-7.5c0.1,0,0.2,0,0.2,0c1.5,0,3,0,4.5,0c0.4,0,0.8,0,1.2,0.1c1.6,0.4,1.7,2.3,1,3.2
		C532.1,23.2,531.8,23.4,531.6,23.7z M527.3,21.2c0,0.6,0,1.1,0,1.7c0.9,0,1.8,0,2.6,0c0.1,0,0.3-0.1,0.4-0.1
		c0.3-0.1,0.5-0.5,0.4-0.9c-0.1-0.4-0.3-0.6-0.6-0.6c-0.6,0-1.2,0-1.8,0C528,21.2,527.6,21.2,527.3,21.2z"/>
	<path class="st0" d="M524.2,21.2c-1.4,0-2.8,0-4.2,0c0,0.4,0,0.9,0,1.3c1.4,0,2.7,0,4.1,0c0,0.5,0,1.1,0,1.6c-1.4,0-2.8,0-4.1,0
		c0,0.5,0,1,0,1.5c1.4,0,2.8,0,4.2,0c0,0.5,0,1.1,0,1.6c-2,0-4,0-6,0c0-2.5,0-5,0-7.5c2,0,4,0,6,0C524.2,20.2,524.2,20.7,524.2,21.2
		z"/>
	<path class="st0" d="M533.8,19.6c0.6,0,1.2,0,1.8,0c0,2.5,0,5,0,7.6c-0.6,0-1.2,0-1.8,0C533.8,24.7,533.8,22.2,533.8,19.6z"/>
	<path class="st0" d="M511.7,32.6c0.1,0,0.2,0,0.2,0c2.3,0,4.5,0,6.8,0c0.2,0,0.3,0,0.4,0.2c0.6,0.7,1.2,1.3,1.7,1.9
		c0.1,0.1,0.2,0.2,0.3,0.4c0.2-0.2,0.3-0.3,0.5-0.5c0.6-0.6,1.1-1.2,1.7-1.8c0.1-0.1,0.2-0.1,0.3-0.2c1.9,0,3.8,0,5.7,0
		c0.6,0,1.2,0.1,1.7,0.4c0.5,0.3,0.8,0.6,1,1.2c0.3,0.9,0.2,1.7-0.3,2.5c-0.3,0.4-0.7,0.6-1.2,0.7c-0.4,0.1-0.9,0.2-1.3,0.2
		c-0.8,0-1.6,0-2.4,0c0,0.8,0,1.7,0,2.5c-0.1,0-0.2,0-0.2,0c-1,0-2.1,0-3.1,0c-0.2,0-0.3,0-0.4-0.2c-0.6-0.7-1.3-1.5-1.9-2.2
		c0,0-0.1-0.1-0.1-0.1c-0.3,0.3-0.5,0.6-0.8,0.9c-0.5,0.5-0.9,1-1.4,1.5c-0.1,0.1-0.2,0.1-0.3,0.1c-2.3,0-4.6,0-6.9,0
		c-0.1,0-0.1,0-0.2,0C511.7,37.7,511.7,35.2,511.7,32.6z M513.5,35.6c1.3,0,2.7,0,4,0c0,0.5,0,1,0,1.5c-1.3,0-2.6,0-4,0
		c0,0.5,0,1,0,1.5c0,0,0.1,0,0.1,0c1.4,0,2.8,0,4.2,0c0.1,0,0.2-0.1,0.3-0.1c0.6-0.7,1.2-1.3,1.9-2c0,0,0,0,0-0.1
		c-0.6-0.7-1.3-1.4-1.9-2.1c0-0.1-0.2-0.1-0.2-0.1c-1.4,0-2.7,0-4.1,0c-0.1,0-0.1,0-0.2,0C513.5,34.7,513.5,35.1,513.5,35.6z
		 M525.1,39.5c0-2,0-4,0-6c-0.9,1-1.9,2-2.8,2.9C523.3,37.5,524.2,38.5,525.1,39.5z M526.9,36.1c0.9,0,1.7,0,2.6,0
		c0.5,0,0.8-0.4,0.8-0.9c0-0.5-0.2-0.8-0.7-0.9c-0.1,0-0.2,0-0.4,0c-0.7,0-1.4,0-2.1,0c-0.1,0-0.1,0-0.2,0
		C526.9,34.9,526.9,35.5,526.9,36.1z"/>
	<path class="st0" d="M535,37.4c0,1,0,1.9,0,2.8c-0.6,0-1.2,0-1.8,0c0-2.5,0-5,0-7.6c0.1,0,0.2,0,0.2,0c1.4,0,2.8,0,4.2,0
		c0.7,0,1.3,0.1,1.9,0.4c0.5,0.3,0.8,0.7,0.9,1.3c0.1,0.9-0.1,1.9-1.2,2.4c0.2,0.1,0.3,0.2,0.5,0.3c0.3,0.2,0.5,0.5,0.5,0.8
		c0.1,0.8,0.1,1.6,0.1,2.4c-0.6,0-1.2,0-1.8,0c0-0.4,0-0.9,0-1.3c0-0.2,0-0.4-0.1-0.6c-0.1-0.4-0.4-0.7-0.8-0.7
		C536.8,37.5,535.9,37.5,535,37.4z M535,35.9C535.1,35.9,535.1,35.9,535,35.9c1,0,1.9,0,2.8-0.1c0.1,0,0.3-0.1,0.4-0.2
		c0.3-0.3,0.3-0.6,0.2-0.9c-0.1-0.3-0.4-0.5-0.7-0.5c-0.7,0-1.4,0-2.1,0c-0.2,0-0.3,0-0.5,0C535,34.8,535,35.4,535,35.9z"/>
	<path class="st0" d="M541.5,40.2c0-2.5,0-5,0-7.5c2,0,4,0,6,0c0,0.5,0,1,0,1.6c-1.4,0-2.8,0-4.2,0c0,0.5,0,0.9,0,1.4
		c1.4,0,2.7,0,4.1,0c0,0.5,0,1,0,1.5c-1.4,0-2.7,0-4.1,0c0,0.5,0,1,0,1.5c1.4,0,2.8,0,4.2,0c0,0.5,0,1,0,1.6
		C545.5,40.2,543.5,40.2,541.5,40.2z"/>
	<path class="st0" d="M548.6,40.2c0-0.5,0-1.1,0-1.6c0.1,0,0.2,0,0.2,0c1.1,0,2.1,0,3.2,0c0.1,0,0.3,0,0.4,0
		c0.3-0.1,0.6-0.3,0.5-0.6c0-0.4-0.2-0.6-0.6-0.6c-0.3,0-0.6,0-1-0.1c-0.5,0-1.1-0.1-1.6-0.2c-1-0.2-1.5-0.9-1.5-1.9
		c-0.1-1.4,0.7-2.3,2.2-2.4c1.3-0.1,2.6,0,4,0c0,0.5,0,1.1,0,1.6c-0.1,0-0.2,0-0.2,0c-1.1,0-2.1,0-3.2,0c-0.1,0-0.3,0-0.4,0
		c-0.3,0.1-0.5,0.3-0.5,0.6c0,0.3,0.2,0.5,0.4,0.6c0.2,0,0.5,0.1,0.7,0.1c0.6,0,1.3,0,1.9,0.1c1,0.2,1.5,0.7,1.6,1.7
		c0.1,0.7,0,1.4-0.5,2c-0.3,0.4-0.8,0.6-1.3,0.7c-0.3,0.1-0.7,0.1-1,0.1c-1.1,0-2.2,0-3.3,0C548.7,40.2,548.7,40.2,548.6,40.2z"/>
	<path class="st0" d="M561.7,32.6c0,0.5,0,1.1,0,1.6c-0.1,0-0.2,0-0.3,0c-1.1,0-2.2,0-3.3,0c-0.5,0-0.7,0.2-0.8,0.6
		c0,0.3,0.1,0.6,0.4,0.6c0.2,0.1,0.4,0.1,0.7,0.1c0.7,0,1.3,0,2,0.1c1.1,0.2,1.5,0.8,1.6,1.9c0,0.8-0.1,1.5-0.7,2
		c-0.5,0.4-1.2,0.6-1.8,0.6c-1.2,0-2.5,0-3.7,0c0,0-0.1,0-0.1,0c0-0.5,0-1.1,0-1.6c0.1,0,0.2,0,0.3,0c1.1,0,2.1,0,3.2,0
		c0.1,0,0.2,0,0.3,0c0.4,0,0.7-0.3,0.6-0.6c0-0.4-0.2-0.6-0.7-0.7c-0.6,0-1.1,0-1.7-0.1c-0.4-0.1-0.8-0.2-1.2-0.3
		c-0.5-0.2-0.8-0.6-1-1.2c-0.1-0.6-0.1-1.2,0.2-1.8c0.4-0.7,1-1,1.8-1.2c0.1,0,0.2,0,0.3,0C559.1,32.6,560.4,32.6,561.7,32.6z"/>
	<path d="M546,23.9c-0.8,0-1.6,0-2.5,0c0.4-1,0.8-1.9,1.2-2.9C545.2,21.9,545.6,22.9,546,23.9z"/>
	<path d="M500.6,23.9c0.4-1,0.8-1.9,1.2-2.9c0.4,1,0.8,1.9,1.2,2.9C502.2,23.9,501.4,23.9,500.6,23.9z"/>
	<path d="M527.3,21.2c0.4,0,0.7,0,1,0c0.6,0,1.2,0,1.8,0c0.4,0,0.6,0.2,0.6,0.6c0.1,0.4-0.1,0.8-0.4,0.9c-0.1,0.1-0.3,0.1-0.4,0.1
		c-0.9,0-1.7,0-2.6,0C527.3,22.3,527.3,21.8,527.3,21.2z"/>
	<path d="M513.5,35.6c0-0.5,0-0.9,0-1.4c0.1,0,0.1,0,0.2,0c1.4,0,2.7,0,4.1,0c0.1,0,0.2,0,0.2,0.1c0.6,0.7,1.3,1.4,1.9,2.1
		c0,0,0,0.1,0,0.1c-0.6,0.7-1.2,1.3-1.9,2c-0.1,0.1-0.2,0.1-0.3,0.1c-1.4,0-2.8,0-4.2,0c0,0-0.1,0-0.1,0c0-0.5,0-1,0-1.5
		c1.3,0,2.6,0,4,0c0-0.5,0-1,0-1.5C516.1,35.6,514.8,35.6,513.5,35.6z"/>
	<path d="M525.1,39.5c-0.9-1-1.8-2.1-2.8-3.1c0.9-1,1.8-1.9,2.8-2.9C525.1,35.5,525.1,37.5,525.1,39.5z"/>
	<path d="M526.9,36.1c0-0.6,0-1.2,0-1.9c0.1,0,0.1,0,0.2,0c0.7,0,1.4,0,2.1,0c0.1,0,0.2,0,0.4,0c0.5,0.1,0.8,0.4,0.7,0.9
		c0,0.5-0.3,0.9-0.8,0.9C528.7,36.1,527.8,36.1,526.9,36.1z"/>
	<path d="M535,35.9c0-0.6,0-1.1,0-1.7c0.2,0,0.3,0,0.5,0c0.7,0,1.4,0,2.1,0c0.3,0,0.6,0.2,0.7,0.5c0.1,0.3,0.1,0.7-0.2,0.9
		c-0.1,0.1-0.2,0.2-0.4,0.2C536.9,35.9,536,35.9,535,35.9C535.1,35.9,535.1,35.9,535,35.9z"/>
</g>
</svg>
